<svg xmlns="http://www.w3.org/2000/svg" viewBox="0 0 200 48"><path fill="#262626" d="M0 .389h200v48H0z"></path><g><path d="M5.521 9.322h6.842V48H5.52" fill="#ed1c23"></path><path d="M25.174 23.644c1.272 1.723 2.606 3.6 3.715 5.053 1.9 2.646 3.45 4.67 6.2 9.062l-.094-.017.077.067h-8.397v-.04l-.012.002c.012-.003-13.123-19.33-13.123-19.33 3.559.069 7.118.014 10.678.014v-.015c2.555-.13 4.534-2.8 4.803-6.2.032-3.164-2.547-5.364-4.803-5.746v-.016h-.1a4.084 4.084 0 00-.489-.042c-.05 0-.1.001-.149.003l-17.959.13L1.293.389l22.876.002c.158-.01.317-.014.478-.015 5.556-.005 9.964 5.215 9.983 11.642-.027 6.228-4.134 11.306-9.456 11.626M38.298 9.636h6.841v28.14h-6.841" fill="#fff"></path><path d="M38.303.376h6.81v7.225h-6.81V.376" fill="#ed1c23"></path><path d="M78.312 26.515h-9.07v.005H56.344c.739 3.556 3.957 6.232 7.815 6.232 2.917 0 5.467-1.53 6.858-3.812h6.636c-2.056 5.64-7.367 9.656-13.597 9.656-8.012 0-14.506-6.645-14.506-14.84 0-8.196 6.495-14.84 14.506-14.84 8.013 0 14.508 6.644 14.508 14.84 0 .943-.087 1.865-.252 2.759M64.16 14.36c-4.108 0-7.491 3.035-7.927 6.934h15.854c-.435-3.9-3.818-6.934-7.927-6.934M94.585 15.666H90.55v22.11h-6.818v-22.11H80.52V9.643h3.214V.39h6.818v9.254h4.034v6.023M153.8 26.558h-9.07v.006h-12.898c.739 3.555 3.957 6.23 7.815 6.23 2.916 0 5.467-1.528 6.857-3.81h6.637c-2.056 5.638-7.367 9.655-13.597 9.655-8.012 0-14.507-6.644-14.507-14.84s6.495-14.84 14.507-14.84 14.508 6.644 14.508 14.84c0 .943-.087 1.865-.252 2.76m-14.153-12.156c-4.109 0-7.491 3.035-7.927 6.934h15.854c-.436-3.9-3.818-6.934-7.927-6.934M158.129 0h6.802v37.796h-6.802M191.905 37.796v-1.958a14.22 14.22 0 01-8.425 2.758c-8.012 0-14.508-6.645-14.508-14.84 0-8.196 6.496-14.84 14.508-14.84 3.141 0 6.05 1.021 8.425 2.757V0h6.802v37.796h-6.802m-8.202-23.039c-4.53 0-8.203 4.036-8.203 9.013 0 4.978 3.672 9.013 8.203 9.013 4.53 0 8.203-4.035 8.203-9.013 0-4.977-3.673-9.013-8.203-9.013M97.478 9.58h6.931l6.906 21.5 6.851-21.47h6.825L114.67 37.937l-6.733.031z" fill="#fff"></path><path d="M14.377 41.159H83.17V48H14.377" fill="#fecb09"></path><path d="M107.585 41.159h91.122V48h-91.122" fill="#00adef"></path><path d="M14.377 41.159h91.122V48H14.377" fill="#fecb09"></path></g></svg>